# Text Overlay Mesh
# Dimensions: Width 5/16 (0.3125), Height 13/16 (0.8125)
# Position: Centered X/Y, Z offset 0.425781
# Note: UVs are mirrored horizontally to match Luanti text rendering direction.

o text_entity_Plane

# Vertices
# X = +/- 0.156250 (0.3125 / 2)
# Y = +/- 0.406250 (0.8125 / 2)

v 0.156250 -0.406250 0.425781  # 1: Bottom Right
v -0.156250 -0.406250 0.425781 # 2: Bottom Left
v 0.156250 0.406250 0.425781   # 3: Top Right
v -0.156250 0.406250 0.425781  # 4: Top Left

# Texture Coordinates
# Mirrored horizontally (X flipped)
vt 0.000000 0.000000 # 1: Maps to Geometry Right
vt 1.000000 0.000000 # 2: Maps to Geometry Left
vt 1.000000 1.000000 # 3: Maps to Geometry Left (Top)
vt 0.000000 1.000000 # 4: Maps to Geometry Right (Top)

# Normals
vn 0.0000 -0.0000 -1.0000

g text_entity_Plane_text_entity
s off

# Face
# Winding: BottomRight -> BottomLeft -> TopLeft -> TopRight
f 1/1/1 2/2/1 4/3/1 3/4/1